<?xml version="1.0" standalone="no"?>
<!DOCTYPE svg PUBLIC "-//W3C//DTD SVG 20010904//EN"
 "http://www.w3.org/TR/2001/REC-SVG-20010904/DTD/svg10.dtd">
<svg version="1.0" xmlns="http://www.w3.org/2000/svg"
 width="512.000000pt" height="512.000000pt" viewBox="0 0 512.000000 512.000000"
 preserveAspectRatio="xMidYMid meet">
<metadata>
Created by potrace 1.11, written by Peter Selinger 2001-2013
</metadata>
<g transform="translate(0.000000,512.000000) scale(0.100000,-0.100000)"
fill="#000000" stroke="none">
<path d="M2486 4430 c-63 -19 -129 -83 -152 -148 -20 -56 -19 -345 2 -404 32
-96 127 -158 235 -154 101 3 182 62 214 155 21 63 21 339 -1 403 -39 114 -178
184 -298 148z"/>
<path d="M1653 3671 c-56 -14 -105 -54 -144 -118 l-24 -38 -3 -454 c-3 -509
-2 -515 66 -585 65 -68 161 -91 250 -62 53 18 90 49 130 108 l27 42 2 465 c2
431 1 469 -16 504 -22 47 -73 102 -114 123 -36 19 -128 27 -174 15z"/>
<path d="M3325 3668 c-71 -26 -127 -81 -150 -147 -21 -61 -21 -327 0 -397 18
-62 80 -127 141 -148 53 -18 149 -15 189 6 49 26 103 87 119 136 12 34 16 87
16 202 0 115 -4 168 -16 202 -16 48 -70 110 -117 135 -37 19 -144 26 -182 11z"/>
<path d="M2486 3470 c-63 -19 -129 -83 -152 -148 -10 -29 -13 -189 -14 -753 0
-798 -1 -783 66 -852 57 -59 89 -72 174 -72 84 0 134 22 184 82 57 68 56 52
56 832 0 805 3 776 -72 850 -63 61 -158 86 -242 61z"/>
<path d="M855 2913 c-36 -9 -100 -55 -128 -91 -42 -55 -49 -98 -45 -286 3
-189 7 -202 72 -266 121 -121 338 -71 391 91 24 70 18 379 -7 425 -21 38 -73
89 -114 111 -30 16 -134 26 -169 16z"/>
<path d="M4125 2909 c-16 -7 -46 -23 -65 -38 -90 -66 -103 -110 -98 -334 4
-190 9 -208 74 -269 94 -89 239 -88 331 3 62 61 73 104 73 289 0 115 -4 168
-16 202 -16 49 -70 110 -119 135 -37 20 -141 26 -180 12z"/>
<path d="M3294 2685 c-61 -32 -99 -75 -119 -136 -14 -40 -16 -110 -13 -501 l3
-453 26 -40 c57 -86 129 -126 220 -120 93 5 158 46 202 128 22 42 22 44 22
512 0 517 3 492 -63 563 -69 74 -188 93 -278 47z"/>
<path d="M1637 2136 c-57 -21 -103 -62 -135 -119 -14 -27 -17 -62 -19 -217 -2
-167 0 -189 18 -225 41 -82 114 -134 200 -140 80 -5 128 13 185 69 69 70 77
103 72 313 -4 181 -8 199 -65 260 -61 65 -170 90 -256 59z"/>
<path d="M2472 1382 c-52 -21 -103 -68 -128 -119 -17 -33 -19 -62 -19 -228 0
-212 2 -221 71 -288 123 -119 332 -68 389 94 21 60 21 339 -1 401 -41 122
-189 189 -312 140z"/>
</g>
</svg>
